<?xml version="1.0" encoding="UTF-8" standalone="no"?>
<!-- Generator: Adobe Illustrator 18.0.0, SVG Export Plug-In . SVG Version: 6.00 Build 0)  -->

<svg
   xmlns:dc="http://purl.org/dc/elements/1.1/"
   xmlns:cc="http://creativecommons.org/ns#"
   xmlns:rdf="http://www.w3.org/1999/02/22-rdf-syntax-ns#"
   xmlns:svg="http://www.w3.org/2000/svg"
   xmlns="http://www.w3.org/2000/svg"
   xmlns:sodipodi="http://sodipodi.sourceforge.net/DTD/sodipodi-0.dtd"
   xmlns:inkscape="http://www.inkscape.org/namespaces/inkscape"
   version="1.1"
   id="Layer_1"
   x="0px"
   y="0px"
   viewBox="0 0 128 128"
   enable-background="new 0 0 128 128"
   xml:space="preserve"
   inkscape:version="0.91 r13725"
   sodipodi:docname="arrow.svg"><metadata
     id="metadata29"><rdf:RDF><cc:Work
         rdf:about=""><dc:format>image/svg+xml</dc:format><dc:type
           rdf:resource="http://purl.org/dc/dcmitype/StillImage" /></cc:Work></rdf:RDF></metadata><defs
     id="defs27" /><sodipodi:namedview
     pagecolor="#ffffff"
     bordercolor="#666666"
     borderopacity="1"
     objecttolerance="10"
     gridtolerance="10"
     guidetolerance="10"
     inkscape:pageopacity="0"
     inkscape:pageshadow="2"
     inkscape:window-width="1920"
     inkscape:window-height="1017"
     id="namedview25"
     showgrid="false"
     inkscape:zoom="3.6875"
     inkscape:cx="28.801844"
     inkscape:cy="82.461125"
     inkscape:window-x="1592"
     inkscape:window-y="-8"
     inkscape:window-maximized="1"
     inkscape:current-layer="Layer_1" /><rect
     stroke="#FFFFFF"
     stroke-width="0.35"
     stroke-miterlimit="10"
     width="128"
     height="128"
     id="rect3" /><g
     id="g11" /><polygon
     stroke-miterlimit="10"
     points="75.1,74.7 75,86.5 96,74.9 117.2,63.7 96,52.4 75,40.8 75.1,52.2 15.5,52.2 15.5,74.7 "
     id="polygon13"
     style="fill:#ffffff;stroke:#ffffff;stroke-width:4;stroke-miterlimit:10"
     transform="matrix(1.0424566,-0.26793565,0.26793565,1.0424566,-19.976891,17.752612)" /><path
     d="M 17.719412,104.74883 68.332146,91.962439 74.086904,113.4877 C 73.929072,113.306 118.02511,74.300371 118.18294,74.482069 L 118.4819,64.403326 77.298892,101.77119 c 0.625475,-0.16076 -3.923575,-16.994971 -4.549048,-16.83421 l -56.498221,14.965888 1.467789,4.845962 z"
     id="path15"
     inkscape:connector-curvature="0"
     style="fill:#ffffff" /><path
     d="M 4.7542558,54.737702 55.694805,40.200074 c 0.208491,-0.05359 -4.804834,-19.991302 -5.013325,-19.937714 -0.05066,0.235284 58.80907,14.779269 58.85973,14.543983 l 4.88067,7.747267 -54.612891,-11.857025 c 0.625473,-0.160762 4.513468,15.398635 3.887995,15.559397 L 6.2040365,60.810744 4.7542558,54.737702 Z"
     id="path17"
     inkscape:connector-curvature="0"
     style="fill:#ffffff" /></svg>